<?xml version="1.0" standalone="no"?><!DOCTYPE svg PUBLIC "-//W3C//DTD SVG 1.1//EN" "http://www.w3.org/Graphics/SVG/1.1/DTD/svg11.dtd"><svg t="1510803090430" class="icon" style="" viewBox="0 0 1024 1024" version="1.1" xmlns="http://www.w3.org/2000/svg" p-id="2219" xmlns:xlink="http://www.w3.org/1999/xlink" width="200" height="200"><defs><style type="text/css"></style></defs><path d="M828.432371 195.555861c-174.768419-174.771489-458.093253-174.771489-632.874975 0-174.768419 174.774559-174.768419 458.107579 0 632.879068 174.781722 174.781722 458.106556 174.781722 632.874975 0C1003.212046 653.662417 1003.212046 370.276185 828.432371 195.555861zM736.077963 549.688367 549.420773 549.688367l0 186.397271c0 20.7373-16.934694 37.745672-37.691437 37.679158-20.74958 0-37.686321-16.941857-37.686321-37.678134L474.043015 549.689391 287.915897 549.689391c-20.750603 0-37.685297-16.937764-37.685297-37.689391 0-20.74651 16.935718-37.687344 37.685297-37.687344l186.135304 0L474.051201 287.922549c0-20.74958 16.936741-37.688367 37.678134-37.688367 20.756743 0 37.691437 16.938788 37.691437 37.688367l0 186.389084 186.65719 0c20.741393 0 37.690414 16.941857 37.690414 37.687344C773.768377 532.750603 756.82038 549.688367 736.077963 549.688367z" p-id="2220" fill="#ff5722"></path></svg>